<svg width="288" height="289" viewBox="0 0 288 289" fill="none" xmlns="http://www.w3.org/2000/svg">

<path d="M78.0718 163.138C74.7867 165.691 70.8172 166.967 66.1632 166.967C62.6956 166.967 59.5017 166.101 56.5816 164.369C53.6615 162.546 51.3345 160.13 49.6007 157.121C47.8669 154.113 47 150.785 47 147.138C47 143.4 47.8213 140.073 49.4638 137.155C51.1977 134.147 53.479 131.822 56.3079 130.181C59.228 128.54 62.3762 127.719 65.7526 127.719C70.224 127.719 74.1936 128.996 77.6612 131.548C81.1288 134.01 83.4102 137.246 84.5052 141.258V152.472C83.5927 156.939 81.4482 160.494 78.0718 163.138Z" fill="#D5E5FF"/>
<path fill-rule="evenodd" clip-rule="evenodd" d="M196.118 170.803L192.345 280.246C177.297 285.569 161.103 288.466 144.233 288.466C64.5752 288.466 0 223.89 0 144.233C0 105.136 15.5558 69.6727 40.8156 43.6942C58.0661 32.9458 78.4659 26.9121 100.213 27.4179C141.596 28.3806 178.855 52.723 196.36 90.2338L196.964 91.5287C191.481 91.5287 178.72 99.0759 180.635 98.8518L181.637 98.7345C191.348 97.5975 194.764 97.1975 204.338 96.696L214.826 97.6243C229.947 98.9627 242.141 109.703 245.85 123.773L243.311 123.773C217.302 123.773 196.207 144.814 196.118 170.803ZM99.16 132.26C99.16 125.119 93.5617 119.233 86.4302 118.874V128.54C84.2401 125.166 81.3656 122.431 77.8067 120.335C74.2478 118.238 70.0501 117.189 65.2137 117.189C59.8297 117.189 54.902 118.466 50.4306 121.018C46.0505 123.48 42.5372 127.035 39.8908 131.685C37.3357 136.244 36.0582 141.622 36.0582 147.822C36.0582 154.021 37.2901 159.355 39.754 163.822C42.3091 168.289 45.7311 171.708 50.02 174.079C54.4002 176.358 59.2822 177.497 64.6662 177.497C69.5026 177.497 73.8372 176.403 77.6698 174.215C81.5025 171.936 84.4226 169.475 86.4302 166.831V176.13C93.4607 176.13 99.16 170.431 99.16 163.4V132.26ZM119.898 121.388C120.454 121.388 120.904 121.839 120.904 122.395V165.274C120.904 172.305 115.205 178.004 108.175 178.004V121.388H119.898ZM115.369 108.175C122.837 108.175 128.891 102.121 128.891 94.6529C128.891 87.185 122.837 81.131 115.369 81.131C107.901 81.131 101.847 87.185 101.847 94.6529C101.847 102.121 107.901 108.175 115.369 108.175Z" fill="#fff"/>

<path d="M287.697 144.233C287.697 203.547 251.894 254.498 200.72 276.654L204.364 170.967C204.364 149.881 221.458 132.788 242.543 132.787L255.26 132.787C255.26 129.703 254.944 126.687 254.341 123.773C250.453 104.989 234.651 90.3973 214.852 88.6449L204.364 87.7165L203.76 86.4216C184.806 45.8057 144.463 19.4482 99.6538 18.4058C87.9947 18.1346 76.6988 19.5947 66 22.5463C88.3768 8.2718 114.955 0 143.464 0C223.122 0 287.697 64.5752 287.697 144.233Z" fill="#D5E5FF"/>
<path fill-rule="evenodd" clip-rule="evenodd" d="M99.2154 132.196C99.2154 125.046 93.607 119.151 86.4626 118.793V128.471C84.2686 125.093 81.3889 122.354 77.8236 120.255C74.2583 118.155 70.0531 117.105 65.208 117.105C59.8143 117.105 54.8778 118.383 50.3983 120.939C46.0102 123.404 42.4907 126.964 39.8395 131.62C37.2798 136.185 36 141.571 36 147.778C36 153.986 37.2341 159.326 39.7024 163.799C42.2621 168.272 45.6903 171.696 49.9869 174.069C54.375 176.351 59.2658 177.492 64.6595 177.492C69.5046 177.492 73.8469 176.397 77.6865 174.206C81.526 171.924 84.4514 169.459 86.4626 166.812V176.123C93.5058 176.123 99.2154 170.416 99.2154 163.377V132.196ZM119.991 121.31C120.548 121.31 120.999 121.761 120.999 122.318V165.253C120.999 172.293 115.289 178 108.246 178V121.31H119.991ZM115.454 108.079C122.935 108.079 129 102.017 129 94.5395C129 87.0618 122.935 81 115.454 81C107.973 81 101.908 87.0618 101.908 94.5395C101.908 102.017 107.973 108.079 115.454 108.079ZM78.0892 163.115C74.7982 165.671 70.8215 166.949 66.1592 166.949C62.6853 166.949 59.4857 166.081 56.5604 164.347C53.635 162.521 51.3038 160.102 49.5669 157.089C47.83 154.077 46.9615 150.745 46.9615 147.093C46.9615 143.351 47.7843 140.019 49.4298 137.097C51.1667 134.085 53.4522 131.757 56.2861 130.114C59.2115 128.471 62.3654 127.649 65.7478 127.649C70.2273 127.649 74.204 128.927 77.6779 131.483C81.1517 133.948 83.4372 137.189 84.5342 141.205V152.434C83.62 156.907 81.4717 160.467 78.0892 163.115Z" fill="#3C3B5C"/>
</svg>